<svg width="35" height="35" viewBox="0 0 35 35" fill="none" xmlns="http://www.w3.org/2000/svg">
<g clip-path="url(#clip0_19_35)">
<path d="M32.7736 16.8097L18.1903 2.22639C18.0081 2.04531 17.7617 1.94367 17.5049 1.94367C17.248 1.94367 17.0016 2.04531 16.8194 2.22639L2.23611 16.8097C2.07684 16.9957 1.99361 17.2349 2.00306 17.4796C2.01251 17.7243 2.11395 17.9564 2.28709 18.1296C2.46024 18.3027 2.69235 18.4042 2.93703 18.4136C3.18172 18.4231 3.42096 18.3398 3.60695 18.1806L17.5 4.2875L31.3931 18.1903C31.579 18.3496 31.8183 18.4328 32.063 18.4233C32.3077 18.4139 32.5398 18.3124 32.7129 18.1393C32.8861 17.9661 32.9875 17.734 32.9969 17.4894C33.0064 17.2447 32.9232 17.0054 32.7639 16.8194L32.7736 16.8097Z" fill="#E3E7F0"/>
<path d="M27.2222 31.1111H22.3611V21.3889H12.6389V31.1111H7.77777V17.5L5.83333 19.4444V31.1111C5.83333 31.6268 6.03819 32.1214 6.40284 32.486C6.7675 32.8507 7.26207 33.0556 7.77777 33.0556H14.5833V23.3333H20.4167V33.0556H27.2222C27.7379 33.0556 28.2325 32.8507 28.5971 32.486C28.9618 32.1214 29.1667 31.6268 29.1667 31.1111V19.2111L27.2222 17.2667V31.1111Z" fill="#E3E7F0"/>
</g>
<defs>
<clipPath id="clip0_19_35">
<rect width="35" height="35" fill="white"/>
</clipPath>
</defs>
</svg>
