<svg width="35" height="35" viewBox="0 0 35 35" fill="none" xmlns="http://www.w3.org/2000/svg">
<path d="M30.625 8.75V30.625C30.625 31.2288 30.5111 31.7928 30.2832 32.3169C30.0553 32.841 29.742 33.3024 29.3433 33.7012C28.9445 34.0999 28.4774 34.4132 27.9419 34.6411C27.4064 34.869 26.8424 34.9886 26.25 35H6.5625C5.95866 35 5.39469 34.8861 4.87061 34.6582C4.34652 34.4303 3.88509 34.117 3.48633 33.7183C3.08757 33.3195 2.77425 32.8581 2.54639 32.334C2.31852 31.8099 2.19889 31.2402 2.1875 30.625V8.75H6.5625V6.5625C6.5625 5.66243 6.7334 4.81364 7.0752 4.01611C7.41699 3.21859 7.88981 2.5236 8.49365 1.93115C9.09749 1.3387 9.79248 0.871582 10.5786 0.529785C11.3647 0.187988 12.2135 0.0113932 13.125 0C14.3099 0 15.4093 0.296224 16.4233 0.888672C17.4373 0.296224 18.5254 0 19.6875 0C20.5876 0 21.4364 0.170898 22.2339 0.512695C23.0314 0.854492 23.7264 1.32731 24.3188 1.93115C24.9113 2.53499 25.3784 3.22998 25.7202 4.01611C26.062 4.80225 26.2386 5.65104 26.25 6.5625V8.75H30.625ZM24.0625 6.5625C24.0625 5.97005 23.9486 5.40609 23.7207 4.87061C23.4928 4.33512 23.1795 3.8737 22.7808 3.48633C22.382 3.09896 21.9149 2.78564 21.3794 2.54639C20.8439 2.30713 20.2799 2.1875 19.6875 2.1875C19.1748 2.1875 18.6906 2.27295 18.2349 2.44385C18.5653 2.854 18.8273 3.25846 19.021 3.65723C19.2147 4.05599 19.3571 4.45475 19.4482 4.85352C19.5394 5.25228 19.6021 5.65674 19.6362 6.06689C19.6704 6.47705 19.6875 6.91569 19.6875 7.38281V8.75H24.0625V6.5625ZM8.75 8.75H17.5V6.5625C17.5 5.97005 17.3861 5.40609 17.1582 4.87061C16.9303 4.33512 16.617 3.8737 16.2183 3.48633C15.8195 3.09896 15.3524 2.78564 14.8169 2.54639C14.2814 2.30713 13.7174 2.1875 13.125 2.1875C12.5212 2.1875 11.9572 2.30143 11.4331 2.5293C10.909 2.75716 10.4476 3.07048 10.0488 3.46924C9.65007 3.868 9.33675 4.33512 9.10889 4.87061C8.88102 5.40609 8.76139 5.97005 8.75 6.5625V8.75ZM22.4561 32.8125C22.0687 32.1289 21.875 31.3997 21.875 30.625V10.9375H4.375V30.625C4.375 30.9326 4.43197 31.2174 4.5459 31.4795C4.65983 31.7415 4.81364 31.9694 5.00732 32.1631C5.20101 32.3568 5.43457 32.5163 5.70801 32.6416C5.98145 32.7669 6.26628 32.8239 6.5625 32.8125H22.4561ZM28.4375 10.9375H24.0625V30.625C24.0625 30.9326 24.1195 31.2174 24.2334 31.4795C24.3473 31.7415 24.5011 31.9694 24.6948 32.1631C24.8885 32.3568 25.1221 32.5163 25.3955 32.6416C25.6689 32.7669 25.9538 32.8239 26.25 32.8125C26.5576 32.8125 26.8424 32.7555 27.1045 32.6416C27.3665 32.5277 27.5944 32.3739 27.7881 32.1802C27.9818 31.9865 28.1413 31.7529 28.2666 31.4795C28.3919 31.2061 28.4489 30.9212 28.4375 30.625V10.9375Z" fill="#E3E7F0"/>
</svg>
