<svg width="30" height="30" viewBox="0 0 30 30" fill="none" xmlns="http://www.w3.org/2000/svg">
<path d="M19.6625 3.75H10.3375L3.75 10.3375V19.6625L10.3375 26.25H19.6625L26.25 19.6625V10.3375L19.6625 3.75ZM23.75 18.625L18.625 23.75H11.375L6.25 18.625V11.375L11.375 6.25H18.625L23.75 11.375V18.625Z" fill="#FF7171"/>
<path d="M15 21.25C15.6904 21.25 16.25 20.6904 16.25 20C16.25 19.3096 15.6904 18.75 15 18.75C14.3096 18.75 13.75 19.3096 13.75 20C13.75 20.6904 14.3096 21.25 15 21.25Z" fill="#FF7171"/>
<path d="M13.75 8.75H16.25V17.5H13.75V8.75Z" fill="#FF7171"/>
</svg>
