<svg width="35" height="35" viewBox="0 0 35 35" fill="none" xmlns="http://www.w3.org/2000/svg">
<path d="M17.5 32.0833L17.1354 27.7083H16.7708C13.3194 27.7083 10.3906 26.5052 7.98437 24.099C5.57812 21.6927 4.375 18.7639 4.375 15.3125C4.375 11.8611 5.57812 8.93229 7.98437 6.52604C10.3906 4.11979 13.3194 2.91667 16.7708 2.91667C18.4965 2.91667 20.107 3.23847 21.6023 3.88208C23.0976 4.52569 24.4101 5.41285 25.5398 6.54354C26.6695 7.67424 27.5562 8.98673 28.1998 10.481C28.8434 11.9753 29.1657 13.5858 29.1667 15.3125C29.1667 17.1354 28.8692 18.8854 28.2742 20.5625C27.6792 22.2396 26.8644 23.7951 25.83 25.2292C24.7975 26.6632 23.5701 27.9635 22.1477 29.1302C20.7253 30.2969 19.1761 31.2812 17.5 32.0833ZM20.4167 26.7604C22.1424 25.3021 23.5462 23.5949 24.6283 21.6387C25.7104 19.6826 26.251 17.5739 26.25 15.3125C26.25 12.6632 25.3322 10.4212 23.4967 8.58667C21.6611 6.75208 19.4192 5.8343 16.7708 5.83333C14.1215 5.83333 11.8796 6.75111 10.045 8.58667C8.21042 10.4222 7.29264 12.6642 7.29167 15.3125C7.29167 17.9618 8.20944 20.2042 10.045 22.0398C11.8806 23.8753 14.1225 24.7926 16.7708 24.7917H20.4167V26.7604ZM16.7344 23.2969C17.1476 23.2969 17.5 23.151 17.7917 22.8594C18.0833 22.5677 18.2292 22.2153 18.2292 21.8021C18.2292 21.3889 18.0833 21.0365 17.7917 20.7448C17.5 20.4531 17.1476 20.3073 16.7344 20.3073C16.3212 20.3073 15.9687 20.4531 15.6771 20.7448C15.3854 21.0365 15.2396 21.3889 15.2396 21.8021C15.2396 22.2153 15.3854 22.5677 15.6771 22.8594C15.9687 23.151 16.3212 23.2969 16.7344 23.2969ZM15.6771 18.6667H17.8646C17.8646 17.9375 17.9375 17.4271 18.0833 17.1354C18.2292 16.8437 18.691 16.309 19.4687 15.5312C19.9062 15.0937 20.2708 14.6198 20.5625 14.1094C20.8542 13.599 21 13.0521 21 12.4687C21 11.2292 20.581 10.2997 19.7429 9.68042C18.9049 9.06111 17.9142 8.75097 16.7708 8.75C15.7014 8.75 14.8021 9.04799 14.0729 9.64396C13.3437 10.2399 12.8333 10.9628 12.5417 11.8125L14.5833 12.6146C14.7049 12.2014 14.9358 11.7945 15.276 11.394C15.6163 10.9934 16.1146 10.7926 16.7708 10.7917C17.4271 10.7917 17.9195 10.974 18.2481 11.3385C18.5767 11.7031 18.7406 12.1042 18.7396 12.5417C18.7396 12.9549 18.6181 13.3258 18.375 13.6544C18.1319 13.983 17.8403 14.3169 17.5 14.6562C16.6493 15.3854 16.1331 15.9629 15.9512 16.3887C15.7694 16.8146 15.6781 17.5739 15.6771 18.6667Z" fill="#E3E7F0"/>
</svg>
